<svg xmlns="http://www.w3.org/2000/svg" xmlns:xlink="http://www.w3.org/1999/xlink" viewBox="0 0 29.99 23.48"><defs><style>.cls-1{fill:none;}.cls-2{clip-path:url(#clip-path);}</style><clipPath id="clip-path"><rect class="cls-1" width="29.99" height="23.51"/></clipPath></defs><title>book</title><g id="Слой_2" data-name="Слой 2"><g id="Слой_1-2" data-name="Слой 1"><path d="M4.07,4.18v.05a.32.32,0,0,0,.38.23,12.66,12.66,0,0,1,7.92,1,.32.32,0,0,0,.41-.13l0-.05a.32.32,0,0,0-.14-.44,13.15,13.15,0,0,0-8.38-1,.32.32,0,0,0-.24.39Zm0,0"/><path d="M4.46,6.42a12.64,12.64,0,0,1,7.92,1,.32.32,0,0,0,.41-.13l0,0a.32.32,0,0,0-.14-.44,13.15,13.15,0,0,0-8.38-1,.32.32,0,0,0-.24.39v.05a.32.32,0,0,0,.38.23Zm0,0"/><path d="M4.08,8a.32.32,0,0,0,.38.23,12.66,12.66,0,0,1,7.92,1,.32.32,0,0,0,.41-.13l0-.05a.32.32,0,0,0-.14-.44,13.15,13.15,0,0,0-8.38-1A.32.32,0,0,0,4.07,8Zm0,0"/><path d="M12.69,10.61a13.15,13.15,0,0,0-8.38-1,.32.32,0,0,0-.24.39V10a.32.32,0,0,0,.38.23,12.65,12.65,0,0,1,7.92,1,.32.32,0,0,0,.41-.13l0,0a.32.32,0,0,0-.14-.44Zm0,0"/><path d="M12.69,12.48a13.15,13.15,0,0,0-8.38-1,.32.32,0,0,0-.24.39v.05a.32.32,0,0,0,.38.23,12.65,12.65,0,0,1,7.92,1A.32.32,0,0,0,12.8,13l0-.05a.32.32,0,0,0-.14-.44Zm0,0"/><path d="M12.68,14.39a13.15,13.15,0,0,0-8.38-1,.32.32,0,0,0-.24.39v.05a.32.32,0,0,0,.38.23,12.66,12.66,0,0,1,7.92,1,.32.32,0,0,0,.41-.13l0,0a.32.32,0,0,0-.14-.44Zm0,0"/><path d="M12.68,16.32a13.15,13.15,0,0,0-8.38-1,.32.32,0,0,0-.23.39v.05a.32.32,0,0,0,.38.23,12.66,12.66,0,0,1,7.92,1,.32.32,0,0,0,.41-.13l0,0a.32.32,0,0,0-.14-.44Zm0,0"/><path d="M17.31,4.81a.32.32,0,0,0-.14.44l0,.05a.32.32,0,0,0,.41.13,12.66,12.66,0,0,1,7.92-1,.32.32,0,0,0,.38-.23V4.18a.32.32,0,0,0-.24-.39,13.15,13.15,0,0,0-8.38,1Zm0,0"/><path d="M17.61,7.39a12.64,12.64,0,0,1,7.92-1,.32.32,0,0,0,.38-.23V6.14a.32.32,0,0,0-.24-.39,13.15,13.15,0,0,0-8.38,1,.32.32,0,0,0-.14.44l0,0a.32.32,0,0,0,.41.13Zm0,0"/><path d="M17.2,9.09a.32.32,0,0,0,.41.13,12.66,12.66,0,0,1,7.92-1A.32.32,0,0,0,25.91,8V8a.33.33,0,0,0-.24-.39,13.15,13.15,0,0,0-8.38,1,.32.32,0,0,0-.14.44Zm0,0"/><path d="M17.19,11.1a.32.32,0,0,0,.41.13,12.65,12.65,0,0,1,7.92-1,.32.32,0,0,0,.38-.23V10a.32.32,0,0,0-.24-.39,13.15,13.15,0,0,0-8.38,1,.32.32,0,0,0-.14.44Zm0,0"/><path d="M17.19,13a.32.32,0,0,0,.41.13,12.65,12.65,0,0,1,7.92-1,.32.32,0,0,0,.38-.23v-.05a.32.32,0,0,0-.24-.39,13.15,13.15,0,0,0-8.38,1,.32.32,0,0,0-.14.44Zm0,0"/><path d="M17.2,14.88a.32.32,0,0,0,.41.13,12.66,12.66,0,0,1,7.92-1,.32.32,0,0,0,.38-.23v-.05a.32.32,0,0,0-.24-.39,13.15,13.15,0,0,0-8.38,1,.32.32,0,0,0-.14.44Zm0,0"/><g class="cls-2"><path d="M25.69,15.3a13.15,13.15,0,0,0-8.38,1,.32.32,0,0,0-.14.44l0,0a.32.32,0,0,0,.41.13,12.66,12.66,0,0,1,7.92-1,.32.32,0,0,0,.38-.23V15.7a.32.32,0,0,0-.23-.39Zm0,0"/><path d="M29.76,3.41a2.38,2.38,0,0,0-1.21-.68V1.45a.64.64,0,0,0-.44-.6A17,17,0,0,0,23.05,0,12,12,0,0,0,15,2.85,12,12,0,0,0,6.94,0,17,17,0,0,0,1.88.84a.64.64,0,0,0-.44.6V2.73a2.38,2.38,0,0,0-1.21.68A.79.79,0,0,0,0,4V21.8a.48.48,0,0,0,.66.44,18.1,18.1,0,0,1,5.82-1.44,18.45,18.45,0,0,1,5.49.8.79.79,0,0,0-.08.35c0,.84,1.39,1.53,3.11,1.53s3.11-.68,3.11-1.53a.79.79,0,0,0-.08-.35,18.44,18.44,0,0,1,5.49-.8,18.1,18.1,0,0,1,5.82,1.44A.48.48,0,0,0,30,21.8V4a.79.79,0,0,0-.23-.56ZM14.61,20a24.33,24.33,0,0,0-8.38-1.79,10.53,10.53,0,0,0-3.93.68V1.59A15.26,15.26,0,0,1,6.94.86a12,12,0,0,1,7.67,2.71Zm13.09-1.1a10.53,10.53,0,0,0-3.93-.68A24.33,24.33,0,0,0,15.38,20V3.56A12,12,0,0,1,23.05.86a15.26,15.26,0,0,1,4.64.74Zm0,0"/></g></g></g></svg>