<svg xmlns="http://www.w3.org/2000/svg" xmlns:xlink="http://www.w3.org/1999/xlink" viewBox="0 0 307.2 409.6"><defs><style>.cls-1{fill:none;}.cls-2{clip-path:url(#clip-path);}.cls-3{fill:#222220;}</style><clipPath id="clip-path" transform="translate(0 0)"><rect class="cls-1" width="307.2" height="409.6"/></clipPath></defs><title>del</title><g id="Слой_2" data-name="Слой 2"><g id="Слой_1-2" data-name="Слой 1"><g class="cls-2"><path class="cls-3" d="M268.8,51.2H38.4A38.4,38.4,0,0,0,0,89.6v12.8H307.2V89.6a38.4,38.4,0,0,0-38.4-38.4M201.73,25.6,207.38,66H99.82l5.65-40.4h96.25M204.8,0H102.4C91.84,0,82,8.56,80.54,19L73.06,72.59C71.6,83,79,91.6,89.6,91.6h128c10.56,0,18-8.56,16.54-19L226.66,19C225.2,8.56,215.36,0,204.8,0m70.4,128H32A23,23,0,0,0,8.72,153.5l21,230.61c1.27,14,13.84,25.5,27.92,25.5h192c14.08,0,26.64-11.47,27.92-25.5l21-230.61A23,23,0,0,0,275.2,128M102.4,358.4H64L51.2,179.2h51.2Zm76.8,0H128V179.2h51.2Zm64,0H204.8V179.2H256Z" transform="translate(0 0)"/></g></g></g></svg>