<svg xmlns="http://www.w3.org/2000/svg" viewBox="0 0 24.15 33.22"><defs><style>.cls-1{fill:#222220;}</style></defs><title>lamp</title><g id="Слой_2" data-name="Слой 2"><g id="Слой_1-2" data-name="Слой 1"><path class="cls-1" d="M14.45,5.29A4.7,4.7,0,0,0,9.75,10h0v0a6.66,6.66,0,0,0,.75,2.54c.69,1.72,1.58,3,1.94,4.14l.11.74h3.79l.09-.65c.37-1.17,1.33-2.54,2-4.4A6.34,6.34,0,0,0,19.14,10h0v0A4.7,4.7,0,0,0,14.45,5.29ZM15,13.6v1.55h-.32V13.51l1.27-3.2h-.23l-.22.63c0,.09-.19.12-.35.07s-.27-.17-.23-.26l.15-.43h-.24l-.22.63c0,.09-.19.12-.35.07s-.26-.17-.23-.26l.15-.43h-.26l-.2.58c0,.09-.19.12-.35.07s-.26-.17-.23-.26l.13-.38h-.42l1.28,3.26v1.58h-.33V13.6L12.21,9.65l.3-.12.13.32h.75l.21-.61c0-.09.19-.12.35-.06s.27.17.23.26L14,9.86h.26l.19-.56c0-.09.19-.12.35-.07s.26.17.23.26l-.12.36h.24l.19-.56c0-.09.19-.12.35-.07s.26.17.23.26l-.12.36h.26l.13-.32.3.12Z"/><polygon class="cls-1" points="16.25 17.9 12.65 17.9 12.66 18.56 16.24 18.56 16.25 17.9"/><path class="cls-1" d="M16.23,19.55v0H12.66v0c0,.61.69,1.11,1.55,1.18h0c0,.09.1.16.23.16s.23-.07.23-.16h0C15.54,20.66,16.21,20.16,16.23,19.55Z"/><polygon class="cls-1" points="16.24 18.81 12.66 18.81 12.66 19.25 16.24 19.25 16.24 18.81"/><path class="cls-1" d="M20.79,17.2a15.54,15.54,0,0,0-3-1.79c-.26.53-.52,1-.75,1.46,1.71.75,6.13,3.11,5.44,7.09v0a2.94,2.94,0,0,1-.21.78l-3.54-1.42,3,2a2.9,2.9,0,0,1-.47.92,2.2,2.2,0,0,1-1.87.9h0a5.07,5.07,0,0,1-1.88-.43l-.22-.09a3.49,3.49,0,0,0-2.74-3.32l-.16.8a2.63,2.63,0,0,1,2.06,2.41l-.08.89c-.1,1.1-.58,2.42-2.35,2.42a8.22,8.22,0,0,1-3.36-1l-.09,0-.65-.13a3.49,3.49,0,0,0-2-3.94l-.31.76A2.66,2.66,0,0,1,9,28.92L9,29l0,.15H9l0,.13c-.14.45-.88.9-2,.9a4.55,4.55,0,0,1-.8-.07c-1.5-.27-2.46-1.18-2.37-1.82l.1-.76-.7-.14a3.59,3.59,0,0,1-1.38-2.05,4.71,4.71,0,0,1,1-3.6l.1-.15,0-.18c.07-.42.31-.87.42-.87h.52a2.67,2.67,0,0,1,.29,3.36l.72.39a3.45,3.45,0,0,0-.63-4.51A8.49,8.49,0,0,1,8.61,16.2,2.67,2.67,0,0,1,8,19.78l.55.6A3.45,3.45,0,0,0,9.41,16a9.38,9.38,0,0,1,1.21-.21l.7,0c-.25-.49-.51-1-.75-1.61h-.11A10.09,10.09,0,0,0,2.73,19a2.59,2.59,0,0,0-1.47,2A6.15,6.15,0,0,0,.11,25.75a5.21,5.21,0,0,0,2,3,3.49,3.49,0,0,0,2.09,2.52c.44.21-.6,1.23-1.78,2a8.25,8.25,0,0,0,4.49-1.35,4,4,0,0,0,3.26-1.36,9.54,9.54,0,0,0,3.89,1,3.73,3.73,0,0,0,3.8-2.91,5.87,5.87,0,0,0,1.55.23h0a4,4,0,0,0,3.81-2.69,3,3,0,0,0,.87-1.93C24.5,21.6,23.37,19.17,20.79,17.2Z"/><path class="cls-1" d="M15.17,4.8v-4c0-.43-.26-.78-.58-.78h-.07c-.32,0-.58.35-.58.78v4l.52,0A5.32,5.32,0,0,1,15.17,4.8Z"/><path class="cls-1" d="M11.7,5.53A5.24,5.24,0,0,1,12.9,5L10.09,2.17a.71.71,0,0,0-1-.14l0,0a.71.71,0,0,0,.14,1Z"/><path class="cls-1" d="M19.18,7.69h3.11c.43,0,.78-.26.78-.58V7c0-.32-.35-.58-.78-.58h-4A5.27,5.27,0,0,1,19.18,7.69Z"/><path class="cls-1" d="M19.68,3a.71.71,0,0,0,.14-1l0,0a.71.71,0,0,0-1,.14L16,5a5.27,5.27,0,0,1,1.2.54Z"/><path class="cls-1" d="M6.61,7.69H9.72a5.27,5.27,0,0,1,.85-1.24h-4c-.43,0-.78.26-.78.58v.07C5.83,7.43,6.18,7.69,6.61,7.69Z"/></g></g></svg>