<svg xmlns="http://www.w3.org/2000/svg" xmlns:xlink="http://www.w3.org/1999/xlink" viewBox="0 0 25.6 21.6"><defs><style>.cls-1{fill:none;}.cls-2{clip-path:url(#clip-path);}.cls-3{fill:#222220;}</style><clipPath id="clip-path" transform="translate(0)"><rect class="cls-1" width="25.6" height="21.6"/></clipPath></defs><title>like-full</title><g id="Слой_2" data-name="Слой 2"><g id="Слой_1-2" data-name="Слой 1"><g class="cls-2"><path class="cls-3" d="M11.77,10.68A6.32,6.32,0,0,1,11.2,8a8.11,8.11,0,0,1,.57-2.93,8.8,8.8,0,0,1,1.54-2.57A7.7,7.7,0,0,1,15.6.69,6.13,6.13,0,0,1,18.4,0a7.18,7.18,0,0,1,5.09,2.11A7.3,7.3,0,0,1,25,4.4,7.22,7.22,0,0,1,25,10a7.33,7.33,0,0,1-1.54,2.29c-.65.65-9.83,8.94-10.69,9.31-.86-.37-10-8.66-10.69-9.31A7.2,7.2,0,0,1,7.2,0,6.13,6.13,0,0,1,10,.69a7.7,7.7,0,0,1,2.29,1.82,9,9,0,0,1,1.54,2.56A8.16,8.16,0,0,1,14.4,8a6.33,6.33,0,0,1-.56,2.68,5.91,5.91,0,0,1-1.54,2" transform="translate(0)"/></g></g></g></svg>