<svg xmlns="http://www.w3.org/2000/svg" viewBox="0 0 29.71 28.25"><defs><style>.cls-1{fill:#222220;}</style></defs><title>star</title><g id="Слой_2" data-name="Слой 2"><g id="Слой_1-2" data-name="Слой 1"><path class="cls-1" d="M6.54,28.25a1.38,1.38,0,0,1-1.36-1.61l1.49-8.71L.41,11.78a1.38,1.38,0,0,1,.77-2.35L9.8,8.23,13.93.71a1.38,1.38,0,0,1,2.43,0l3.89,7.53,8.29,1.2a1.38,1.38,0,0,1,.79,2.32l-5.79,6,1.32,8.91a1.38,1.38,0,0,1-2,1.42l-7.69-4-8,4A1.38,1.38,0,0,1,6.54,28.25ZM4.34,11.77l4.79,4.7a1.38,1.38,0,0,1,.39,1.22L8.36,24.42l6.2-3.11a1.38,1.38,0,0,1,1.25,0l5.92,3.09-1-6.91a1.38,1.38,0,0,1,.37-1.16l4.39-4.53-6.32-.91a1.38,1.38,0,0,1-1-.73l-3-5.86-3.21,5.85a1.38,1.38,0,0,1-1,.7ZM10.68,9.5h0Z"/></g></g></svg>