<?xml version="1.0" encoding="utf-8"?>
<!-- Generator: Adobe Illustrator 22.1.0, SVG Export Plug-In . SVG Version: 6.00 Build 0)  -->
<svg version="1.1" id="OBJECTS" xmlns="http://www.w3.org/2000/svg" xmlns:xlink="http://www.w3.org/1999/xlink" x="0px" y="0px"
	 viewBox="0 0 198.4 198.4" style="enable-background:new 0 0 198.4 198.4;" xml:space="preserve">
<style type="text/css">
	.st0{fill:#9DC44D;}
	.st1{fill:url(#XMLID_2_);}
	.st2{fill:#FFFFFF;}
</style>
<g id="XMLID_135_">
	<circle id="XMLID_121_" class="st0" cx="99.2" cy="99.2" r="99.2"/>
	<linearGradient id="XMLID_2_" gradientUnits="userSpaceOnUse" x1="110.8974" y1="91.1414" x2="177.8635" y2="158.1076">
		<stop  offset="0" style="stop-color:#3B683D"/>
		<stop  offset="0.8957" style="stop-color:#3B683D;stop-opacity:0"/>
	</linearGradient>
	<path id="XMLID_140_" class="st1" d="M198.3,99.3c0-6.3-0.6-12.4-1.7-18.3l-32.5-32.2l-71.9,66.8l-14.4,38.5l42.3,42.3
		C164.9,186.7,198.3,146.9,198.3,99.3z"/>
	<g id="XMLID_146_">
		<path id="XMLID_158_" class="st2" d="M78.1,154.1l-44.2-44.2c-5.5-5.5-5.5-14.5,0-20c5.5-5.5,14.5-5.5,20,0l24.3,24.3l66.1-65.4
			c5.6-5.5,14.5-5.5,20,0.1c5.5,5.6,5.5,14.5-0.1,20L78.1,154.1z"/>
	</g>
</g>
</svg>
