<svg xmlns="http://www.w3.org/2000/svg" xmlns:xlink="http://www.w3.org/1999/xlink" viewBox="0 0 77.35 77.35"><defs><style>.cls-1,.cls-6{fill:none;}.cls-2{clip-path:url(#clip-path);}.cls-3,.cls-5{fill:#fff;}.cls-4{fill:#2c3363;}.cls-5{fill-rule:evenodd;}.cls-6{stroke:#fff;stroke-miterlimit:10;}</style><clipPath id="clip-path" transform="translate(0 0)"><rect class="cls-1" width="77.35" height="77.35"/></clipPath></defs><title>logo</title><g id="Слой_2" data-name="Слой 2"><g id="Слой_1-2" data-name="Слой 1"><g class="cls-2"><path class="cls-3" d="M76.72,38.54h0a38.09,38.09,0,0,1-76.18,0v0a38.09,38.09,0,0,1,76.18,0m-.48,0h0A37.61,37.61,0,1,0,1,38.54v0a37.61,37.61,0,1,0,75.23,0" transform="translate(0 0)"/><path class="cls-4" d="M24.24,19.45v0h0l0,0" transform="translate(0 0)"/><polyline class="cls-4" points="34.06 60.5 34.06 60.5 34.06 60.5 34.06 60.5"/><path class="cls-4" d="M29.28,59.16h0" transform="translate(0 0)"/><path class="cls-4" d="M34.39,61.19h0" transform="translate(0 0)"/><path class="cls-4" d="M31.17,61h0v0" transform="translate(0 0)"/><polyline class="cls-4" points="22.48 50.62 22.49 50.62 22.49 50.62 22.48 50.62"/><path class="cls-4" d="M27.65,56.7h0v0h0" transform="translate(0 0)"/><polyline class="cls-4" points="33.45 60.81 33.46 60.81 33.46 60.8 33.46 60.8 33.45 60.81"/><polyline class="cls-4" points="27.17 56.3 27.18 56.3 27.17 56.3 27.17 56.3"/><path class="cls-4" d="M20.6,49.2h0Z" transform="translate(0 0)"/><path class="cls-4" d="M26.28,54h0" transform="translate(0 0)"/><polyline class="cls-4" points="23.08 50.62 23.08 50.62 23.08 50.62 23.08 50.62"/><polygon class="cls-4" points="19.02 42.32 19.04 42.33 19.04 42.33 19.02 42.32"/><path class="cls-4" d="M44.19,61l.05.05.05,0a.28.28,0,0,0-.05-.07l-.05,0" transform="translate(0 0)"/><polyline class="cls-4" points="45.45 59.7 45.46 59.7 45.46 59.7 45.45 59.69 45.45 59.7"/><path class="cls-4" d="M52.1,19.08l0,0h0l.05,0" transform="translate(0 0)"/><path class="cls-4" d="M35.56,61.37h0" transform="translate(0 0)"/><path class="cls-4" d="M37.1,60.38h0" transform="translate(0 0)"/><path class="cls-4" d="M38.76,62.92h0" transform="translate(0 0)"/><path class="cls-4" d="M50,18,49.91,18l0,0Z" transform="translate(0 0)"/><path class="cls-3" d="M43.13,61.32h0" transform="translate(0 0)"/><path class="cls-3" d="M21.35,45.65h-.12c-.78,1.44-1.24,2-1.08,3.74a.79.79,0,0,1,.27,0l.17-.16-.27-.78Z" transform="translate(0 0)"/><path class="cls-3" d="M21.78,48.79,21.3,49l-.43.31-.27-.07h0a.61.61,0,0,0,.05.34c.05.08.2.05.27,0,.27-.23.58-.55.86-.75Z" transform="translate(0 0)"/><path class="cls-3" d="M22.31,50.62l-.12-1.9-.17,0-.24.09h0l.19,0a8.64,8.64,0,0,0,.2,2.27l.31-.43Z" transform="translate(0 0)"/><path class="cls-3" d="M22.79,50.55l-.3.07c0,.44-.08.59.18.6s.21-.49.41-.6Z" transform="translate(0 0)"/><path class="cls-3" d="M20.64,29.61l.05-.67-.05-1.38-.07-2.17.08-1,.77-1.85,1-1.28.91-.84L24,20l.27-.47A4.81,4.81,0,0,0,22,21.2a5.64,5.64,0,0,0-1.3,2c-.1.65-.72,1.15-.46,1.8v2.6c0,.56.53,1.62.15,1.85-.1.58-.19,1.15-.27,1.73h.54V29.61Z" transform="translate(0 0)"/><path class="cls-3" d="M54.19,21l.5.86,0,0,.1.07a6.26,6.26,0,0,0-2.7-2.88l.72.45Z" transform="translate(0 0)"/><path class="cls-3" d="M49.91,18a.61.61,0,0,0-.37-.32l0,0Z" transform="translate(0 0)"/><path class="cls-3" d="M21.23,45.65l-.41.08-.63.6-.12,0h0c0,.28,0,.62.23.57.5-.07.5-.94.91-1.26h0Z" transform="translate(0 0)"/><path class="cls-3" d="M24.12,18.84,24,18.69l.14,0,1.25.29.87-.27.57-.67.48-.44,1.15-.17,1.81-.15.09-1.16s1.55-.26,1.64-.26,2.55.53,2.55.53l2.55-1.73.31.91,1.42.17,1-.33.33-.89,2,1.66,1.08-.27,1.64-.48.27.38,1.4,0,.63,1,1.44.84.73,0,.13,0h0l0,0a1.52,1.52,0,0,0-.41-.41.37.37,0,0,0-.14,0c-1.09,0-1.11-.55-1.33-.6.24-1.2.24-1.2.15-1.42l-.24,0a5.5,5.5,0,0,0-2.39.22v-.38a1.65,1.65,0,0,1-.36.07l-.57.14c-.17.05-.36.1-.7.22-.55.39-.55.39-.8.43A4.08,4.08,0,0,0,39.8,14a2,2,0,0,1-.07.27s0,.07,0,.1c0,.55,0,.55-.1.62-.22-.07-.58-.24-1-.39-.38.15-.73.32-1,.39-.07-.07-.07-.07-.1-.62a2.92,2.92,0,0,1-.1-.38,4.08,4.08,0,0,0-2.94,1.93c-.27,0-.27,0-.82-.43a4.8,4.8,0,0,0-1.08-.31l-.53-.12v.38a5.92,5.92,0,0,0-2.63-.2c-.09.22-.09.22.15,1.42-.24.05-.24.05-1.47-.07a1.87,1.87,0,0,1-.33.15c-1.2.53-2,.63-2.5,1.93l-.72-.1-.5-.07h-.36a.32.32,0,0,0-.1.15,1.13,1.13,0,0,1,.15.07c.13.15.25.32.37.48h0Z" transform="translate(0 0)"/><path class="cls-3" d="M24.17,19.21a.27.27,0,0,0,.07.24l-.06-.22v0" transform="translate(0 0)"/><path class="cls-3" d="M51.71,18.81l.34.24h0c0-.05.1-.11.07-.14l.43-.05,0-.22-1.81-.41L50,18l.16.13Z" transform="translate(0 0)"/><path class="cls-3" d="M56.22,27.61l.19,1.22h0c.29-.54,0-2.35-.51-3.71h0Z" transform="translate(0 0)"/><path class="cls-3" d="M19.23,42.45,19,42.33c.1.22.42.28.73.35h0Z" transform="translate(0 0)"/><path class="cls-3" d="M19.85,46.31l.43-1.86L20,43.78l-.1-1-.14-.05h0l0,0c-.07.31-.12.63-.17,1,.15.15.39.22.48.65-.41,1-.75,1.28-.34,2.43l.28-.39h0Z" transform="translate(0 0)"/><path class="cls-3" d="M20.64,31.19h0l0,.28h.22Z" transform="translate(0 0)"/><path class="cls-3" d="M18.93,42.23l-.24-.29s.24-3.71.36-3.81-.15-.92-.15-.92L18.33,36l.29-1.18.67-1.3,1.59-1.93-.07-.07h0c-.65.89-1.4,1-2.1,2.29-.8,2-1,1.57,0,3.62a30.66,30.66,0,0,0-.22,4.68l.51.25h0Z" transform="translate(0 0)"/><path class="cls-3" d="M55.25,22.83l.39,1.35.26.94h0s0,0,0,0c-.14-1,.09-1.11,0-1.78a3.86,3.86,0,0,0-1-1.32l0,0,0,.06Z" transform="translate(0 0)"/><path class="cls-3" d="M44.41,60.79l-.09.24,0,.05L44.05,61,44,60.88h0c.06.2.14.39.27.27a.38.38,0,0,0,.12-.15,3.07,3.07,0,0,1,.45-.62c.12-.12.24-.26.36-.36s.19-.22.29-.32l-.29,0Z" transform="translate(0 0)"/><path class="cls-3" d="M34.24,60.53l-.19,0,.06.82a1,1,0,0,1,.27-.13l-.06-.13Z" transform="translate(0 0)"/><path class="cls-3" d="M35.4,61.3l-.82,0-.19-.05c0,.12,0,.22.14.24.45.11.6-.08,1-.07l-.07-.06H35.4" transform="translate(0 0)"/><path class="cls-3" d="M35.57,61.38c0,.11.1.22.16.32l.31-.12h0Z" transform="translate(0 0)"/><path class="cls-3" d="M33.71,60.72l-.25.08a1,1,0,0,0,.28.24c.2.08.09-.22.31-.55h0Z" transform="translate(0 0)"/><path class="cls-3" d="M31,61l-.67-2.19-.12,0h0a8.28,8.28,0,0,0,.82,2.5l.12-.27h0Z" transform="translate(0 0)"/><path class="cls-3" d="M32.45,59.68l-.13,0h0l.31.37c.24.27.46.56.7.84l.14-.12-.14,0Z" transform="translate(0 0)"/><path class="cls-3" d="M37,60.35l-.36,1.11-.34.17L36,61.58h0c0,.1,0,.22.1.24a.82.82,0,0,0,.7-.27c.17-.2.12-.51.17-.75l.09-.41h0Z" transform="translate(0 0)"/><path class="cls-3" d="M32.19,59.68,31.29,61h-.1a1,1,0,0,0,.29.39c.31.22.59-1.18.84-1.69h0Z" transform="translate(0 0)"/><path class="cls-3" d="M58.53,33.77c-.75-1.42-1.59-1.4-2.27-2.58.31,0,.6,0,.91,0-.09-.58-.19-1.15-.27-1.73a1.48,1.48,0,0,1-.48-.63h0l0,.26L56,30.37l-1.2,1.23.94,2.27L57,36.3l.14,1.28.68,2.87-.46,1-.43.29-.44,1.56-1.55,2.48.79,1.81L54,49.44,53,51.18l-1.79,1.39L50,54.6l-1.5,2.72-1.69.7-.62,1.54-.68.14a15.7,15.7,0,0,1,.75,1.59c.38-.94.94-2,.77-2.85a.88.88,0,0,1,.58.32,2.35,2.35,0,0,0,.58.53c.33-.5.6-.89.84-1.28a6.33,6.33,0,0,0,.55-1.13c.07-.22.14-.43.19-.67.24,0,.24,0,.63.24a7.71,7.71,0,0,0,.38-1.11c.15-.57.21-1.09.31-1.69l.75.41a3.32,3.32,0,0,1,1-1.69c.43,1.13.43,1.13.58,1.25.27-1,.55-2.08.8-3.13,0-.05,0-.05.44-.05l.21.31.22.31c.1-.22.1-.22.2-2.27.91.08,1,0,1.54.58a.65.65,0,0,1,.27,0c.17-1.85-.31-2.33-1.15-3.9a3.45,3.45,0,0,1,.6,0c.32.44.63.85.92,1.28.41-1.14.09-1.38-.32-2.43.07-.43.31-.5.48-.65a8.28,8.28,0,0,0-.19-1l1.32-.63a35.56,35.56,0,0,0-.24-4.68c1-2.05.85-1.57,0-3.62" transform="translate(0 0)"/><path class="cls-3" d="M43.68,60.47l-.18,0h0a1.57,1.57,0,0,0,.43.48l0,0h0Z" transform="translate(0 0)"/><path class="cls-3" d="M30.17,58.71l-.77.44-.1,0a2.58,2.58,0,0,0,.26.24c.23.18.46-.27.67-.62h0Z" transform="translate(0 0)"/><path class="cls-3" d="M37.9,61.39,37.51,61l-.26-.55-.14-.06a1.58,1.58,0,0,0,.42.76c.48-.1.75,2,1.09,1.83,0,0,.1,0,.15-.05l-.18-.07Z" transform="translate(0 0)"/><path class="cls-3" d="M43.49,60.43l-.09,0-.05.65,0,.15-.14,0h-.07a1.13,1.13,0,0,1,.36.18c0-.35-.06-.73,0-1h0Z" transform="translate(0 0)"/><path class="cls-3" d="M43,61.27l-.32,0-.79.17-.14.27-.24,0-.31-.15h0c.05.24.46.29.68.27s.09-.36.22-.39a2.2,2.2,0,0,1,1-.14l-.06,0Z" transform="translate(0 0)"/><path class="cls-3" d="M40.48,60.48l-.75.87-.41.79-.41.82-.13,0c.07.11.15.19.23.19.27,0,.48-.7.72-1.25a1.18,1.18,0,0,1,.39-.56,1.05,1.05,0,0,0,.49-.8v0Z" transform="translate(0 0)"/><path class="cls-3" d="M41.1,61.42l-.38-.91-.1,0h0v0l.19.92.39.15h0Z" transform="translate(0 0)"/><path class="cls-3" d="M27.18,56.31a1.05,1.05,0,0,0,.19.3c.13.13.22.13.28.09l-.23-.16Z" transform="translate(0 0)"/><path class="cls-3" d="M24.12,53.17l-.1,0-.73-2.5-.2,0c.25,1,.52,2,.78,3,.1-.08.14-.11.27-.43v0Z" transform="translate(0 0)"/><path class="cls-3" d="M25.76,53.88l-.09-.05-.74-1.18-.16,0h0a4.84,4.84,0,0,1,.68,1.38l.31-.17h0Z" transform="translate(0 0)"/><path class="cls-3" d="M28.76,58.57l-.94-1.85H27.7a3.6,3.6,0,0,0,.12.39,12.1,12.1,0,0,0,1.3,2.19.73.73,0,0,0,.16-.12l-.15,0Z" transform="translate(0 0)"/><path class="cls-3" d="M24.77,52.67l-.17-.05-.36.51-.1,0v0a4.06,4.06,0,0,0,.21.58c.2.46,0-.2.26-.78a.85.85,0,0,1,.17-.31Z" transform="translate(0 0)"/><path class="cls-3" d="M25.88,53.88h-.11a1,1,0,0,0,.15.32c.15.17.26,0,.36-.18l-.11,0Z" transform="translate(0 0)"/><path class="cls-3" d="M27,56.23,26.41,54h-.12a9.06,9.06,0,0,0,.62,2.41l.26-.15h0Z" transform="translate(0 0)"/><path class="cls-3" d="M49.81,18l.13,0,0,0-.35-.29a1.27,1.27,0,0,0,.25.31" transform="translate(0 0)"/><path class="cls-3" d="M36.45,61.42l-.4.15.25.05.34-.17L37,60.35l.1,0h0c-.23-.81-.14-1.49-.66,1" transform="translate(0 0)"/><path class="cls-3" d="M20.88,49.27,21.3,49l.48-.17h0c-.62.05-.79.05-1.18.4h0Z" transform="translate(0 0)"/><path class="cls-3" d="M20.62,48.95c0-1.33.55-1.83,1.2-3.23,0-.08-.36-.16-.56-.07h.1l-1,2.77.27.78h0c0-.09,0-.17,0-.25" transform="translate(0 0)"/><path class="cls-3" d="M24.35,19.44l-.17-.22.06.22,0,0,.09,0" transform="translate(0 0)"/><path class="cls-3" d="M35.4,61.3c-.5-.07-.73-.18-1-.11h0l.19.05Z" transform="translate(0 0)"/><path class="cls-3" d="M35.54,61.32h-.06l.07.06h0l0,0" transform="translate(0 0)"/><path class="cls-3" d="M26.23,53.65l-.45.24h.1l.29.1.11,0h0l-.06-.38" transform="translate(0 0)"/><path class="cls-3" d="M36,61.42a1.84,1.84,0,0,0-.39-.05h0l.47.2c0-.07,0-.14-.08-.15" transform="translate(0 0)"/><path class="cls-3" d="M34.45,60.16a1.11,1.11,0,0,0-.39.34h0l.19,0,.08.53.07.13h0c0-.42.34-1.2.05-1" transform="translate(0 0)"/><path class="cls-3" d="M46.75,58l1.69-.7L50,54.6l1.21-2L53,51.18,54,49.44l1.69-1.9-.79-1.81,1.56-2.48.44-1.56.43-.29.46-1-.68-2.87L57,36.3l-1.21-2.43-.94-2.27L56,30.37l.36-1.26,0-.26h0a.27.27,0,0,1-.43.1c-.58-.38.22-1.88-.33-1.56a3.79,3.79,0,0,1-.82.34c-1.35.38-1.74-.72-1.35-.78a5.46,5.46,0,0,0,1.35-.36c.14-.07.12-.14,0-.17-.37-.17-1.73-.24-1.69-.41.53-2.12,1.14-2.67,1.69-2.43a2.91,2.91,0,0,1,1.06,1.55h0l-.26-.94-.39-1.35-.42-.8h0c.07.19.07.26,0,.17a5.48,5.48,0,0,0-4.12-1.92,8.84,8.84,0,0,0-1.19.05l-.55.09c-1.15.22-1.67.48-.84-.33a7.52,7.52,0,0,1,.84-.7c.19-.1.38-.22.55-.31a3.25,3.25,0,0,1,1.19-.31,3,3,0,0,1,1.33.26h0l-.34-.24-1.57-.63L50,18h0a.5.5,0,0,1,0,.15c0,.24-.31,0-.46-.1s0,0-.05,0c-.33-.29-.18-.42,0-.39l-.12,0-.73,0-1.44-.84-.63-1-1.4,0-.27-.38-1.64.48-1.08.27-2-1.66-.32.89-1,.33-1.42-.17-.31-.91-2.55,1.73s-2.48-.53-2.55-.53-1.64.26-1.64.26l-.09,1.16-1.81.15-1.14.17-.48.44-.57.67-.87.27-1.25-.29-.14,0,.12.15.05.35a.28.28,0,0,1,.09-.13c.09-.07.2,0,.34.07.32.2.67.72.22.63a.68.68,0,0,1-.22-.07.78.78,0,0,1-.35-.22h0L24,20l-.65.5-.91.84-1,1.28-.77,1.85-.09,1,.07,2.17.05,1.39-.05.67v1.55l.22-1.36c.39-.22-.15-1.5-.15-1.88V25.34c-.26-.63.36-1.15.46-1.76a5.7,5.7,0,0,1,1.3-2v.14a5.06,5.06,0,0,0,1.83-.44,2.77,2.77,0,0,0,.31-.1,5.45,5.45,0,0,1,3.21-.29c2.68.84.87,5.47,4.24,3.76a.57.57,0,0,1,.56.14.31.31,0,0,1,0,.5s0,0-.05,0c-.51.48-1.49,2.63-1.91,3.16s-.56-.22-.58.05c-.05,1.4,1.16,2,2.55,2.39s2.94.55,3.57,1c.36.27.44.55.72,1.32.33.94-.15,7.33-.72,7.5s-.72.15-.8.55a3.33,3.33,0,0,0,.48.55,13.44,13.44,0,0,0,2.92.24H39c.26,0,.51,0,.77,0a9.67,9.67,0,0,0,2.15-.22c.36-.22.61-1.13.92-.33s-1,1.67-2.19,2.33a2,2,0,0,0-.89,1A6.61,6.61,0,0,0,39.39,47c.11.06.22.14.34.2a10.65,10.65,0,0,0,3.44,1.54c-.09.22,0,.31-.29.36a10.85,10.85,0,0,1-2-.14H37.22c-2.24,0-2.27,1.45-2.38,2s.07.55.26.68.24,0,.41.24.29.74.46,1c.43.68,2.14,1,3.76.92,1.8-.07,3.49-.51,3.21-1.27s0,0,.17-.22.72-.1,1,.19a.66.66,0,0,0,.15.15c.14.1.21.05,0-.14l-.12-.1c-.44-.36-.84-1.76.07-.89a.25.25,0,0,1,0,.07,6.25,6.25,0,0,1,.56.65,3.13,3.13,0,0,1,.36.62.45.45,0,0,1,0,.43.25.25,0,0,1-.12.05,1.29,1.29,0,0,1-.24,0c-.24,0-.41-.07-.56,0a.29.29,0,0,0-.14.12c-.24.34-.12.7.14,1.09.15.24.36.51.56.79l.36.56a3,3,0,0,1,.41,1.5,14.67,14.67,0,0,0,0,2.14l-.1.12h0l.68-.14ZM28.55,18.69l-.73.05-.65.05a2.79,2.79,0,0,1-.08-.46c.24,0,.48,0,.73,0l.73.05Zm21,23.54a2.78,2.78,0,0,1-.12.38,1.6,1.6,0,0,0-.31.07A.67.67,0,0,1,49,42.6c-.26-.21-.21-.43-.43-.48-.07-.87-.14-1.74-.19-2.58.21-.05.41-.1.62-.14l.22-.05a10,10,0,0,1,.33,1.38,4,4,0,0,1,0,1.49m.72-2.12c-.43.34-.63-.05-.72-.62a10.45,10.45,0,0,1-.05-1.71s0,0,.05,0,.27.12.32,0,0-1,.39-.58a5.14,5.14,0,0,1,.48.8,4.26,4.26,0,0,0,1.16,1.49c.12.09.15.39,0,.44-.44.14-.68-.36-.7-.1-.07,1.23-.24.85-.46.41M47.37,25.78l.19,0c.32,0,.72-.17,1,0s-.21.43-.07.58a2.24,2.24,0,0,0,.48.48c.05,0,.07,0,0,0l0,0c-.21,0-.46-.08-.63,0-.34.2.63,1.52.6,2a1.61,1.61,0,0,0,0,.67,1.7,1.7,0,0,0,.55.75,7.46,7.46,0,0,1,.89,1c-.1.51-.55.36.07,1.09v.19h-.17a4.22,4.22,0,0,1-.79-.62c-.21-.22-.38-.44-.55-.67-.48-.65-.84-1.38-1.32-2.07l-.1-.08a11,11,0,0,1-2.39-2.87,6.15,6.15,0,0,1-.36-.77,2.52,2.52,0,0,1-.17-1h.24a1,1,0,0,0,.29.48c.51.5,1.54.56,2.21.79m-3.13-9a2,2,0,0,1,.44,0c0-.07,0-.15.12-.24a2.24,2.24,0,0,1,.36-.24c.51-.27,1.27-.5,1.2-.26s-.48.92-.89.92a1.75,1.75,0,0,1-.31,0l-.26,0a.21.21,0,0,1-.1.31s0,0,0,0a1.06,1.06,0,0,1-.53.08c-.38-.08-.44-.48,0-.56m-4.51,2.63a3.31,3.31,0,0,0-.56,1.67c-.29,7.06-6-2.75-.79-4.34a6.74,6.74,0,0,0,1.21-.47.42.42,0,0,1,.14-.49c.26-.14.65,0,0,.41l-.14.08a1.07,1.07,0,0,0,.14.3.81.81,0,0,0,.15.2c.51.65,4.15-1.54,3.14-.58a16.93,16.93,0,0,0-3.3,3.21m3.8,14.73c-.31.19-.63,1.59-.72,1.09A5.6,5.6,0,0,1,43,32.43,2.41,2.41,0,0,1,44.24,32a3.17,3.17,0,0,1,.56-.05l.36,0a4.47,4.47,0,0,1,1.56.17c.63.27.5.67-.21.68-.46,0-.92.51-1.35.89a2.86,2.86,0,0,1-.36.29.82.82,0,0,1-.27.14,1.16,1.16,0,0,1-.29.07c-.36.05-.48-.09-.72.07m2.26,18.08a1.35,1.35,0,0,1-.09-.27h-.19c-.19-.75-.26-1.08-.34-1.35a4.13,4.13,0,0,0-.31-.67s0,0-.05,0-.12.05-.12,0c-.07-.27-.63-1.73.12-1.16l.05.05a1.19,1.19,0,0,1,.31.41c.48.89,1,2.72.62,3" transform="translate(0 0)"/><path class="cls-3" d="M56.41,28.84l-.19-1.22-.32-2.47c0,.83.22,1.67.22,2.52a2.71,2.71,0,0,0,.29,1.17" transform="translate(0 0)"/><path class="cls-3" d="M23,50.48c0-.05,0-.05-.43-.05l-.13.18h0l.3-.07.29.07h0l0-.14" transform="translate(0 0)"/><path class="cls-3" d="M44.81,16.93l.1,0a.25.25,0,0,0-.1-.09l-.12-.05h0a.18.18,0,0,0,.12.12" transform="translate(0 0)"/><path class="cls-3" d="M39.32,62.14l.41-.79.75-.87h.13c-.43-2-.17.06-.88.67-.41-.07-.67,1.44-1,1.77h0l.13,0Z" transform="translate(0 0)"/><path class="cls-3" d="M37.92,61.3c-.81-.35-.49-2.37-.81-.93h0l.14.06.26.55.39.39.68,1.47.18.07h0c-.28-.43-.5-1.45-.85-1.61" transform="translate(0 0)"/><path class="cls-3" d="M52,19.1s.8.41.75.45c-.19.22.51.73.91,1.06a3.12,3.12,0,0,1,.85,1.16l.16.12,0,0-.5-.85-1.37-1.49-.72-.45,0,0a.06.06,0,0,0,0,0" transform="translate(0 0)"/><path class="cls-3" d="M45.18,59.41l0,0-.36.44-.56.67-.27.33.08.08.24.12,0-.05.09-.24.75-1.06.29,0h0a.68.68,0,0,0-.27-.29M44.24,61,44.19,61l.05,0a.28.28,0,0,1,.05.07Z" transform="translate(0 0)"/><path class="cls-3" d="M22.46,48.95c-.06-.49-.34-.41-.68-.15l.24-.09.17,0,.12,1.9h.17a7,7,0,0,0,0-1.67" transform="translate(0 0)"/><path class="cls-3" d="M38.46,47l-.1.06h0l.5,0h0l.5,0h0l0,0Z" transform="translate(0 0)"/><path class="cls-3" d="M32.62,59.63a.47.47,0,0,0-.12-.09c-.06,0-.12,0-.18.17l.13,0,.87,1.11.14,0h0c-.31-.35-.48-.89-.84-1.17" transform="translate(0 0)"/><path class="cls-3" d="M33.13,35.34a1.81,1.81,0,0,0,.36.94c.14,0,.26-.07.39-.12a1.58,1.58,0,0,0-1.26-2.09,2.37,2.37,0,0,0-1.32,0,10.48,10.48,0,0,0,1.32.92l.51.36" transform="translate(0 0)"/><path class="cls-3" d="M34.94,41.49a.94.94,0,0,0,.26.95l.08,0,.07-1.08a.85.85,0,0,1,0-.14c-.15-.16-.29-.18-.44.22" transform="translate(0 0)"/><path class="cls-3" d="M27.54,56.21a.6.6,0,0,0-.37.09h0l.25.23.23.16h0c0-.16-.11-.3-.15-.48" transform="translate(0 0)"/><path class="cls-3" d="M24,53.15l.1,0h0c-.21-.7-.42-1.72-.59-2.48,0-.1,0-.22-.44-.09l0,0h0l.2,0Z" transform="translate(0 0)"/><path class="cls-3" d="M30.17,58.71l.06.07a1.59,1.59,0,0,1,0-.35c-.4,0-.69.47-1,.72h0l.1,0Z" transform="translate(0 0)"/><path class="cls-3" d="M28,56.35c-.12-.29-.14-.17-.17,0a.76.76,0,0,1-.13.34v0h.12l.94,1.85.38.55.15,0h0A7.11,7.11,0,0,1,28,56.35" transform="translate(0 0)"/><path class="cls-3" d="M19.76,42.68,19,42.33h0l.19.12Z" transform="translate(0 0)"/><path class="cls-3" d="M30.7,58.6c-.13-.31-.29-.1-.47.18h0l.12,0L31,61l.14.05h0v0c-.31-.69-.22-1.86-.47-2.39" transform="translate(0 0)"/><path class="cls-3" d="M32.19,59.68l.12,0-.25-.31c-.26.08-.64,1-.88,1.59v0h.1Z" transform="translate(0 0)"/><path class="cls-3" d="M19,42.28c-.41-1.49.31-3.08.24-4.62,0-.41-.7-1.3-.7-1.78a6.51,6.51,0,0,1,.67-1.83c.75-1.4,1.59-1.38,2.26-2.55l-.67,0h0l.07.07-1.59,1.93-.67,1.3L18.33,36l.56,1.25s.29.82.15.92-.36,3.81-.36,3.81l.24.29.09.09h0l0,0" transform="translate(0 0)"/><path class="cls-3" d="M40.62,60.48h0l.1,0,.38.9.1.15c-.62-2.31-.45-1.79-.58-1.09" transform="translate(0 0)"/><path class="cls-3" d="M24.45,52.36l-.31.8.1,0,.36-.51.17.05h0a1.46,1.46,0,0,0-.17-.19l-.15-.12" transform="translate(0 0)"/><path class="cls-3" d="M20.72,45.46l-.65.89h0l.12,0,.63-.6.41-.08h0l.08-.15a3.53,3.53,0,0,0-.6,0" transform="translate(0 0)"/><path class="cls-3" d="M24.91,52.53a.83.83,0,0,0-.13.14l.16,0,.74,1.18.09.05h0c-.2-.66-.28-1.84-.86-1.35" transform="translate(0 0)"/><path class="cls-3" d="M20.64,31.19l.16.28a3.18,3.18,0,0,0,.19-.28h-.35" transform="translate(0 0)"/><path class="cls-3" d="M20.14,43.89c-.21-.26.34-.67.17-.94a.83.83,0,0,0-.54-.26h0l.14.05.1,1,.26.67-.43,1.86.22,0c0-.11,0-.21,0-.27,0-1.21.94-1.09.05-2.19" transform="translate(0 0)"/><path class="cls-3" d="M34,60a5.4,5.4,0,0,1-.56.78h0l.25-.08.34-.22h0c0-.16,0-.31,0-.48" transform="translate(0 0)"/><path class="cls-3" d="M43.13,61.3h.07l.14,0,0-.15.05-.65.09,0h0L43.22,60c0,.44,0,.84-.08,1.28" transform="translate(0 0)"/><path class="cls-3" d="M43.59,60.19a.71.71,0,0,0-.09.24l.18,0,.29.41-.07-.24c0-.12-.17-.65-.31-.45" transform="translate(0 0)"/><path class="cls-3" d="M37.13,43.82a7,7,0,0,1-1.93-1.38c-.25-.14-1-.53-1.1-.4s.5.45.68.77A1.93,1.93,0,0,1,35,44.42a17.06,17.06,0,0,0-2.36-.6,2,2,0,0,0-1.11,0,5.89,5.89,0,0,0,1.11.53c.7.32,1.44.72,1.09.91a2.26,2.26,0,0,1-1.09,0,2.52,2.52,0,0,0-.77,0c-.15.12.48.38.77.62a.3.3,0,0,1,.15.22.27.27,0,0,1-.15.15c-.32.17-1,.1-.31.44l.31.21a28.38,28.38,0,0,0,2.72,1.76,30.33,30.33,0,0,0,3-1.58c-.05-2.33-.56-2.81-1.23-3.22" transform="translate(0 0)"/><path class="cls-3" d="M26.69,53.8c-.16-.31-.27,0-.4.22h.13L27,56.23l.14.07h0c-.33-.72-.23-2-.48-2.5" transform="translate(0 0)"/><path class="cls-3" d="M41.73,61.32a4.26,4.26,0,0,1-.22.38l-.3-.12.3.15.24,0,.14-.27.79-.17.33,0h.06c-.43-.24-.6,0-1.33,0" transform="translate(0 0)"/><path class="cls-3" d="M6.62,34.73l.12-1a1.32,1.32,0,0,0-1.2-1.52A1.26,1.26,0,0,0,4,33.33l-.24,2,4.29.51.1-.89Zm-2-.24.09-.72c.07-.55.27-.75.68-.7a.6.6,0,0,1,.6.74l-.1.84Zm.72-7,3.74-.38c.2.24.24.32.14.56A.93.93,0,0,1,9,28l.7.29a2.57,2.57,0,0,0,.26-.5c.17-.39.17-.72-.34-1.23L6.86,23.71l-.38.94,1.9,1.74-2.67.17Zm7.18-10.07a1.75,1.75,0,0,0-2.34.61A2,2,0,0,0,10.86,21a2,2,0,0,0,3-.26,1.79,1.79,0,0,0-.19-2.44l-.53.72a1,1,0,0,1,.1,1.26c-.44.61-1.21.46-1.85,0-1-.7-.84-1.42-.58-1.76A.87.87,0,0,1,12,18.17Zm5.9-5.71a1.73,1.73,0,0,0-2.41,0,2,2,0,0,0-.05,3,2,2,0,0,0,3,.46,1.77,1.77,0,0,0,.41-2.41l-.68.56a1,1,0,0,1-.2,1.26c-.58.48-1.28.14-1.78-.44-.79-.94-.48-1.59-.15-1.86a.9.9,0,0,1,1.23,0Zm4-4.15-.8.39,1.88,3.86.8-.39-.63-1.32.19-.56,2,1.11,1-.5L24.12,8.68l.82-2.34-1.06.5-.7,2.31Zm8.21-3-.51,4.55L31,8.87l.09-.94,1.56-.36.46.8,1-.22L31.64,4.31Zm.72.84h0l1,1.52-1.13.26Zm10-1.74-2.17-.05a1.33,1.33,0,0,0-1.38,1.3,1.3,1.3,0,0,0,1,1.25L37.63,7.86l1,0,1-1.66h.67l0,1.69.91,0Zm-.92,1.86-1,0c-.46,0-.7-.26-.68-.61s.17-.53.63-.53l1.11,0Zm10.8.39-.82-.36L48.62,9.45l4.51,2,1.74-3.95-.8-.36-1.45,3.26-1-.46L53,6.7l-.82-.36L50.75,9.61l-1-.46Zm8.67,4.91-.72-.55-2.6,3.45.72.53.87-1.16.6-.09-.07,2.31.92.7.05-3.16,2.46-.34-.92-.7-2.38.41Zm3.86,6.46a2.08,2.08,0,1,0,3.06.34,2,2,0,0,0-3.06-.34m.53.74c1-.72,1.62-.34,1.91.05s.44,1.13-.55,1.85-1.61.32-1.9-.07-.44-1.13.53-1.83m6.26,6.08L68.19,25c-.86.34-1.16.36-1.32,0a1.16,1.16,0,0,1-.07-.26l-.63.26a2.42,2.42,0,0,0,.14.53c.32.79,1.09.77,2.14.34l1.69-.68.46,1.13-3.3,1.33.32.84,4-1.62Zm2.67,9-4.46-1,.1.94.92.19.19,1.57-.84.38.12,1,4.08-2Zm-.91.61v0l-1.62.79-.14-1.15Z" transform="translate(0 0)"/><path class="cls-3" d="M10.57,51.43l-2,3.18c-.31,0-.39,0-.51-.22A.74.74,0,0,1,7.92,54l-.67.38a2.64,2.64,0,0,0,.24.51c.2.36.46.56,1.18.48l4-.44-.51-.87-2.53.43,1.51-2.22ZM14.7,58,11.56,60.9l.62.65,2.62-2.43,1.15,1.23-2.62,2.43.62.67,3.15-2.94Zm4.67,8,.82.61a1.36,1.36,0,0,0,1.93-.31,1.26,1.26,0,0,0-.27-1.9l-1.59-1.16-2.53,3.49.72.53Zm1.18-1.62.58.43c.44.32.53.6.29.94a.6.6,0,0,1-.94.15l-.68-.49Zm7,2.89-3.09,3.37.87.38.63-.7,1.45.61-.09.92.89.38.29-4.55Zm.09,1.09h0l-.12,1.79-1.06-.44Zm5.23,4.82,1.83.24c1.59.19,1.83-.7,1.88-1.08A1,1,0,0,0,36,71.18a.88.88,0,0,0,.62-.82c.07-.44-.12-1.13-1.16-1.26l-2.12-.26Zm1.11-1.76,1.13.14c.33,0,.63.22.58.6s-.32.6-.77.55l-1.08-.14Zm.21-1.66,1,.12c.41.05.63.19.6.55s-.34.44-.7.39l-1-.12Zm6.9-.53.31,2.46c.12.94.05,1.23-.34,1.28a1.23,1.23,0,0,1-.27,0l.08.7a2,2,0,0,0,.55,0c.84-.1,1-.85.89-1.95L42,69.79l1.19-.15.45,3.54.89-.1L44,68.8ZM47.78,68l1.62,4,3-1.23L52.16,70l-2.2.89-.44-1.11L51.44,69l-.27-.68-1.93.79-.34-.82L51,67.47l-.27-.7Zm7.35-3.5-.75.5,2.36,3.61.75-.48-1.06-1.62,1.4-.92,1.06,1.62.75-.48L57.3,63.06l-.75.5.89,1.37L56,65.82Zm5.62-4.53-.58.68,3.25,2.82.63-.72-1.16-3.35,2.32,2,.58-.68-3.25-2.82-.67.75L63,61.89Zm5.57-8.22-1,2a1.29,1.29,0,0,0,2.12,1.45l1.13,1.73.46-1L68,54.27l.29-.6,1.5.74.39-.8Zm1.3,1.64-.46.92c-.2.43-.53.53-.84.38a.58.58,0,0,1-.22-.8l.5-1Z" transform="translate(0 0)"/><path class="cls-5" d="M70.91,43.14a1.35,1.35,0,1,1,0,2.7,1.35,1.35,0,0,1,0-2.7" transform="translate(0 0)"/><path class="cls-5" d="M6.33,43.09a1.34,1.34,0,1,1,0,2.68,1.34,1.34,0,1,1,0-2.68" transform="translate(0 0)"/><circle class="cls-6" cx="38.48" cy="38.73" r="28.24"/><circle class="cls-6" cx="38.68" cy="38.67" r="38.18"/></g></g></g></svg>